<?xml version="1.0" encoding="UTF-8"?>
<!DOCTYPE svg PUBLIC "-//W3C//DTD SVG 1.1//EN" "http://www.w3.org/Graphics/SVG/1.1/DTD/svg11.dtd">
<svg xmlns="http://www.w3.org/2000/svg" version="1.1" width="512px" height="512px" style="shape-rendering:geometricPrecision; text-rendering:geometricPrecision; image-rendering:optimizeQuality; fill-rule:evenodd; clip-rule:evenodd" xmlns:xlink="http://www.w3.org/1999/xlink">
<g><path style="opacity:1" fill="#3b8e9b" d="M 232.5,-0.5 C 247.833,-0.5 263.167,-0.5 278.5,-0.5C 378.271,12.4486 449.438,64.4486 492,155.5C 502.136,180.379 508.636,206.046 511.5,232.5C 511.5,247.833 511.5,263.167 511.5,278.5C 498.551,378.271 446.551,449.438 355.5,492C 330.622,502.136 304.955,508.636 278.5,511.5C 263.167,511.5 247.833,511.5 232.5,511.5C 132.727,498.549 61.5605,446.549 19,355.5C 8.86392,330.621 2.36392,304.954 -0.5,278.5C -0.5,263.167 -0.5,247.833 -0.5,232.5C 12.4486,132.729 64.4486,61.5622 155.5,19C 180.379,8.86392 206.046,2.36392 232.5,-0.5 Z M 145.5,69.5 C 148.331,68.9213 150.664,67.588 152.5,65.5C 225.144,29.2908 296.811,31.1241 367.5,71C 437.879,117.245 472.379,182.745 471,267.5C 462.642,353.43 419.809,415.264 342.5,453C 266.993,483.31 195.66,475.644 128.5,430C 67.7168,382.925 38.2168,320.758 40,243.5C 46.615,167.814 81.7816,109.814 145.5,69.5 Z"/></g>
<g><path style="opacity:0.055" fill="#c84f70" d="M 152.5,65.5 C 150.664,67.588 148.331,68.9213 145.5,69.5C 147.34,67.3311 149.674,65.9977 152.5,65.5 Z"/></g>
<g><path style="opacity:1" fill="#388e9c" d="M 249.5,134.5 C 261.717,132.576 270.217,137.243 275,148.5C 275.5,176.831 275.667,205.165 275.5,233.5C 303.502,233.333 331.502,233.5 359.5,234C 372.271,238.369 377.105,247.203 374,260.5C 371.833,266.667 367.667,270.833 361.5,273C 332.87,274.45 304.203,274.95 275.5,274.5C 275.667,302.502 275.5,330.502 275,358.5C 272.011,367.926 265.511,372.926 255.5,373.5C 245.489,372.926 238.989,367.926 236,358.5C 235.5,330.502 235.333,302.502 235.5,274.5C 206.797,274.95 178.13,274.45 149.5,273C 136.293,266.348 132.793,256.181 139,242.5C 142.092,238.072 146.259,235.239 151.5,234C 179.498,233.5 207.498,233.333 235.5,233.5C 235.333,205.165 235.5,176.831 236,148.5C 238.687,141.981 243.187,137.314 249.5,134.5 Z"/></g>
</svg>
