<?xml version="1.0" encoding="UTF-8"?>
<!DOCTYPE svg PUBLIC "-//W3C//DTD SVG 1.1//EN" "http://www.w3.org/Graphics/SVG/1.1/DTD/svg11.dtd">
<svg xmlns="http://www.w3.org/2000/svg" version="1.1" width="512px" height="512px" style="shape-rendering:geometricPrecision; text-rendering:geometricPrecision; image-rendering:optimizeQuality; fill-rule:evenodd; clip-rule:evenodd" xmlns:xlink="http://www.w3.org/1999/xlink">
<g><path style="opacity:1" fill="#328e9c" d="M 235.5,-0.5 C 248.833,-0.5 262.167,-0.5 275.5,-0.5C 374.862,11.0528 446.362,61.7195 490,151.5C 501.582,178.499 508.749,206.499 511.5,235.5C 511.5,248.833 511.5,262.167 511.5,275.5C 501.559,363.923 458.892,431.423 383.5,478C 349.717,496.764 313.717,507.931 275.5,511.5C 262.167,511.5 248.833,511.5 235.5,511.5C 136.14,499.949 64.64,449.283 21,359.5C 9.41656,332.497 2.24989,304.497 -0.5,275.5C -0.5,261.833 -0.5,248.167 -0.5,234.5C 4.58736,180.678 24.254,133.012 58.5,91.5C 58.4346,91.9382 58.6012,92.2716 59,92.5C 60.8022,91.2107 61.9688,89.5441 62.5,87.5C 100.532,43.7306 148.199,15.8972 205.5,4C 215.621,2.32186 225.621,0.821857 235.5,-0.5 Z M 250.5,116.5 C 260.872,115.439 269.039,119.106 275,127.5C 276.399,130.363 277.399,133.363 278,136.5C 278.5,168.498 278.667,200.498 278.5,232.5C 310.502,232.333 342.502,232.5 374.5,233C 390.485,237.127 396.652,247.294 393,263.5C 389.58,271.798 383.414,276.631 374.5,278C 342.502,278.5 310.502,278.667 278.5,278.5C 278.667,310.502 278.5,342.502 278,374.5C 273.848,390.495 263.682,396.662 247.5,393C 239.202,389.58 234.369,383.414 233,374.5C 232.5,342.502 232.333,310.502 232.5,278.5C 200.498,278.667 168.498,278.5 136.5,278C 120.505,273.848 114.338,263.682 118,247.5C 121.42,239.202 127.586,234.369 136.5,233C 168.498,232.5 200.498,232.333 232.5,232.5C 232.333,200.498 232.5,168.498 233,136.5C 234.803,126.203 240.636,119.537 250.5,116.5 Z"/></g>
<g><path style="opacity:0.863" fill="#b83c53" d="M 62.5,87.5 C 61.9688,89.5441 60.8022,91.2107 59,92.5C 58.6012,92.2716 58.4346,91.9382 58.5,91.5C 59.5,89.8333 60.8333,88.5 62.5,87.5 Z"/></g>
</svg>
