<?xml version="1.0" encoding="UTF-8"?>
<!DOCTYPE svg PUBLIC "-//W3C//DTD SVG 1.1//EN" "http://www.w3.org/Graphics/SVG/1.1/DTD/svg11.dtd">
<svg xmlns="http://www.w3.org/2000/svg" version="1.1" width="512px" height="512px" style="shape-rendering:geometricPrecision; text-rendering:geometricPrecision; image-rendering:optimizeQuality; fill-rule:evenodd; clip-rule:evenodd" xmlns:xlink="http://www.w3.org/1999/xlink">
<g><path style="opacity:1" fill="#318f9c" d="M 234.5,-0.5 C 248.5,-0.5 262.5,-0.5 276.5,-0.5C 366.972,9.80319 435.139,54.1365 481,132.5C 497.695,163.971 507.861,197.304 511.5,232.5C 511.5,247.833 511.5,263.167 511.5,278.5C 501.863,361.303 462.529,425.803 393.5,472C 357.584,494.472 318.584,507.638 276.5,511.5C 262.5,511.5 248.5,511.5 234.5,511.5C 133.815,499.25 61.9812,447.25 19,355.5C 8.86392,330.621 2.36392,304.954 -0.5,278.5C -0.5,263.167 -0.5,247.833 -0.5,232.5C 12.7744,130.437 66.441,58.6034 160.5,17C 184.552,7.98524 209.219,2.15191 234.5,-0.5 Z"/></g>
<g><path style="opacity:1" fill="#fefefe" d="M 344.5,134.5 C 360.454,144.484 376.121,154.984 391.5,166C 338.963,240.905 286.797,316.072 235,391.5C 195.257,360.379 155.424,329.379 115.5,298.5C 114.417,297.635 114.251,296.635 115,295.5C 126.387,281.62 137.554,267.62 148.5,253.5C 170.643,270.476 192.643,287.642 214.5,305C 217.199,307.51 220.199,309.176 223.5,310C 264.054,251.62 304.387,193.12 344.5,134.5 Z"/></g>
</svg>
