<?xml version="1.0" encoding="UTF-8"?>
<!DOCTYPE svg PUBLIC "-//W3C//DTD SVG 1.1//EN" "http://www.w3.org/Graphics/SVG/1.1/DTD/svg11.dtd">
<svg xmlns="http://www.w3.org/2000/svg" version="1.1" width="512px" height="512px" style="shape-rendering:geometricPrecision; text-rendering:geometricPrecision; image-rendering:optimizeQuality; fill-rule:evenodd; clip-rule:evenodd" xmlns:xlink="http://www.w3.org/1999/xlink">
<g><path style="opacity:1" fill="#308f9d" d="M 245.5,-0.5 C 252.167,-0.5 258.833,-0.5 265.5,-0.5C 273.688,1.92744 281.021,5.92744 287.5,11.5C 355.963,81.4659 425.297,151.299 495.5,221C 496.094,221.464 496.761,221.631 497.5,221.5C 503.246,226.642 507.246,232.976 509.5,240.5C 508.957,240.56 508.624,240.893 508.5,241.5C 509.689,245.582 510.689,249.582 511.5,253.5C 511.5,257.5 511.5,261.5 511.5,265.5C 503.272,291.689 485.272,304.356 457.5,303.5C 457.961,358.19 457.461,412.857 456,467.5C 449.872,491.129 435.038,505.796 411.5,511.5C 379.167,511.5 346.833,511.5 314.5,511.5C 310.215,509.378 307.048,506.045 305,501.5C 304.974,457.129 304.307,412.796 303,368.5C 300.565,361.066 295.732,355.899 288.5,353C 277.555,351.88 266.555,351.38 255.5,351.5C 244.445,351.38 233.445,351.88 222.5,353C 214.118,356.924 208.951,363.424 207,372.5C 206.667,415.5 206.333,458.5 206,501.5C 203.978,506.02 200.811,509.353 196.5,511.5C 163.833,511.5 131.167,511.5 98.5,511.5C 75.9561,505.457 61.4561,491.124 55,468.5C 53.5386,413.523 53.0386,358.523 53.5,303.5C 25.7047,304.326 7.70472,291.659 -0.5,265.5C -0.5,258.833 -0.5,252.167 -0.5,245.5C 1.68988,236.638 6.02321,228.972 12.5,222.5C 48.1172,188.55 83.1172,153.883 117.5,118.5C 153.17,83.8333 187.837,48.8333 221.5,13.5C 228.295,6.76909 236.295,2.10243 245.5,-0.5 Z"/></g>
<g><path style="opacity:0.129" fill="#733d25" d="M 287.5,11.5 C 357.833,81.1667 427.833,151.167 497.5,221.5C 496.761,221.631 496.094,221.464 495.5,221C 425.297,151.299 355.963,81.4659 287.5,11.5 Z"/></g>
<g><path style="opacity:0.894" fill="#56932b" d="M 221.5,13.5 C 187.837,48.8333 153.17,83.8333 117.5,118.5C 117.5,118.167 117.5,117.833 117.5,117.5C 151.833,82.5 186.5,47.8333 221.5,13.5 Z"/></g>
<g><path style="opacity:0.898" fill="#ca4db9" d="M 117.5,117.5 C 117.5,117.833 117.5,118.167 117.5,118.5C 83.1172,153.883 48.1172,188.55 12.5,222.5C 47.1667,187.167 82.1667,152.167 117.5,117.5 Z"/></g>
<g><path style="opacity:0.945" fill="#c29975" d="M 509.5,240.5 C 510.024,242.306 510.691,243.972 511.5,245.5C 511.5,248.167 511.5,250.833 511.5,253.5C 510.689,249.582 509.689,245.582 508.5,241.5C 508.624,240.893 508.957,240.56 509.5,240.5 Z"/></g>
</svg>
