<?xml version="1.0" encoding="UTF-8"?>
<!DOCTYPE svg PUBLIC "-//W3C//DTD SVG 1.1//EN" "http://www.w3.org/Graphics/SVG/1.1/DTD/svg11.dtd">
<svg xmlns="http://www.w3.org/2000/svg" version="1.1" width="512px" height="512px" style="shape-rendering:geometricPrecision; text-rendering:geometricPrecision; image-rendering:optimizeQuality; fill-rule:evenodd; clip-rule:evenodd" xmlns:xlink="http://www.w3.org/1999/xlink">
<g><path style="opacity:1" fill="#3a8e9c" d="M 246.5,-0.5 C 253.167,-0.5 259.833,-0.5 266.5,-0.5C 274.688,1.92744 282.021,5.92744 288.5,11.5C 288.062,11.4346 287.728,11.6012 287.5,12C 293.423,18.4294 299.757,24.2627 306.5,29.5C 308.167,30.5 309.5,31.8333 310.5,33.5C 371.63,96.1326 433.63,158.633 496.5,221C 497.094,221.464 497.761,221.631 498.5,221.5C 504.339,227.177 508.673,233.843 511.5,241.5C 511.5,250.833 511.5,260.167 511.5,269.5C 501.96,293.123 484.293,304.456 458.5,303.5C 458.961,358.19 458.461,412.857 457,467.5C 450.872,491.129 436.038,505.796 412.5,511.5C 380.167,511.5 347.833,511.5 315.5,511.5C 311.215,509.378 308.048,506.045 306,501.5C 305.974,457.129 305.307,412.796 304,368.5C 301.565,361.066 296.732,355.899 289.5,353C 278.555,351.88 267.555,351.38 256.5,351.5C 245.445,351.38 234.445,351.88 223.5,353C 215.118,356.924 209.951,363.424 208,372.5C 207.667,415.5 207.333,458.5 207,501.5C 204.978,506.02 201.811,509.353 197.5,511.5C 164.833,511.5 132.167,511.5 99.5,511.5C 76.9561,505.457 62.4561,491.124 56,468.5C 54.5341,413.526 54.0341,358.526 54.5,303.5C 26.7264,304.528 8.8931,291.862 1,265.5C -2.09429,248.849 2.07237,234.515 13.5,222.5C 49.1172,188.55 84.1172,153.883 118.5,118.5C 147.167,90.5 175.5,62.1667 203.5,33.5C 205.167,32.5 206.5,31.1667 207.5,29.5C 213.524,24.4985 218.524,19.1651 222.5,13.5C 229.295,6.76909 237.295,2.10243 246.5,-0.5 Z M 267.5,33.5 C 302.5,69.1667 337.833,104.5 373.5,139.5C 408.167,174.833 443.167,209.833 478.5,244.5C 483.02,252.799 482.353,260.632 476.5,268C 473.874,270.146 470.874,271.479 467.5,272C 457.5,272.333 447.5,272.667 437.5,273C 433,274.833 429.833,278 428,282.5C 427.667,341.167 427.333,399.833 427,458.5C 425.602,469.235 419.769,476.402 409.5,480C 385.201,481.429 360.868,481.929 336.5,481.5C 336.667,444.832 336.5,408.165 336,371.5C 332.161,343.329 316.328,326.496 288.5,321C 266.833,320.333 245.167,320.333 223.5,321C 197.122,326.712 181.622,342.878 177,369.5C 176.5,406.832 176.333,444.165 176.5,481.5C 152.132,481.929 127.799,481.429 103.5,480C 93.2311,476.402 87.3977,469.235 86,458.5C 85.6667,399.833 85.3333,341.167 85,282.5C 83.1667,278 80,274.833 75.5,273C 65.5,272.667 55.5,272.333 45.5,272C 34.5149,268.998 30.0149,261.831 32,250.5C 32.5611,248.275 33.5611,246.275 35,244.5C 105.167,174.333 175.333,104.167 245.5,34C 252.746,29.508 260.079,29.3414 267.5,33.5 Z"/></g>
<g><path style="opacity:0.082" fill="#70322b" d="M 288.5,11.5 C 294.833,17.1667 300.833,23.1667 306.5,29.5C 299.757,24.2627 293.423,18.4294 287.5,12C 287.728,11.6012 288.062,11.4346 288.5,11.5 Z"/></g>
<g><path style="opacity:0.894" fill="#56932b" d="M 222.5,13.5 C 218.524,19.1651 213.524,24.4985 207.5,29.5C 207.167,29.5 206.833,29.5 206.5,29.5C 211.5,23.8333 216.833,18.5 222.5,13.5 Z"/></g>
<g><path style="opacity:0.898" fill="#ca4db9" d="M 206.5,29.5 C 206.833,29.5 207.167,29.5 207.5,29.5C 206.5,31.1667 205.167,32.5 203.5,33.5C 203.167,33.5 202.833,33.5 202.5,33.5C 203.5,31.8333 204.833,30.5 206.5,29.5 Z"/></g>
<g><path style="opacity:0.133" fill="#663223" d="M 310.5,33.5 C 373.5,95.8333 436.167,158.5 498.5,221.5C 497.761,221.631 497.094,221.464 496.5,221C 433.63,158.633 371.63,96.1326 310.5,33.5 Z"/></g>
<g><path style="opacity:0.996" fill="#552064" d="M 267.5,33.5 C 303.784,68.1168 339.451,103.45 374.5,139.5C 374.167,139.5 373.833,139.5 373.5,139.5C 337.833,104.5 302.5,69.1667 267.5,33.5 Z"/></g>
<g><path style="opacity:0.894" fill="#56932b" d="M 202.5,33.5 C 202.833,33.5 203.167,33.5 203.5,33.5C 175.5,62.1667 147.167,90.5 118.5,118.5C 118.5,118.167 118.5,117.833 118.5,117.5C 146.167,89.1667 174.167,61.1667 202.5,33.5 Z"/></g>
<g><path style="opacity:0.996" fill="#891c2e" d="M 373.5,139.5 C 373.833,139.5 374.167,139.5 374.5,139.5C 409.883,173.883 444.55,208.883 478.5,244.5C 443.167,209.833 408.167,174.833 373.5,139.5 Z"/></g>
<g><path style="opacity:0.898" fill="#ca4db9" d="M 118.5,117.5 C 118.5,117.833 118.5,118.167 118.5,118.5C 84.1172,153.883 49.1172,188.55 13.5,222.5C 48.1667,187.167 83.1667,152.167 118.5,117.5 Z"/></g>
</svg>
