<?xml version="1.0" encoding="UTF-8"?>
<!DOCTYPE svg PUBLIC "-//W3C//DTD SVG 1.1//EN" "http://www.w3.org/Graphics/SVG/1.1/DTD/svg11.dtd">
<svg xmlns="http://www.w3.org/2000/svg" version="1.1" width="256px" height="256px" style="shape-rendering:geometricPrecision; text-rendering:geometricPrecision; image-rendering:optimizeQuality; fill-rule:evenodd; clip-rule:evenodd" xmlns:xlink="http://www.w3.org/1999/xlink">
<g><path style="opacity:1" fill="#3b8d9a" d="M 243.5,-0.5 C 246.5,-0.5 249.5,-0.5 252.5,-0.5C 253.167,0.833333 254.167,1.83333 255.5,2.5C 255.5,5.5 255.5,8.5 255.5,11.5C 173.833,92.5 92.5,173.833 11.5,255.5C 8.5,255.5 5.5,255.5 2.5,255.5C 1.83333,254.167 0.833333,253.167 -0.5,252.5C -0.5,250.833 -0.5,249.167 -0.5,247.5C 18.3822,227.115 37.8822,207.115 58,187.5C 58.6053,185.365 58.1053,185.031 56.5,186.5C 34.5806,171.248 15.5806,152.915 -0.5,131.5C -0.5,128.833 -0.5,126.167 -0.5,123.5C 22.1556,92.6716 50.8222,69.1716 85.5,53C 118.955,39.9878 151.289,42.1545 182.5,59.5C 182.062,59.4346 181.728,59.6012 181.5,60C 182.416,60.3742 183.25,60.8742 184,61.5C 201.71,44.3004 218.544,26.967 234.5,9.5C 237.5,6.16667 240.5,2.83333 243.5,-0.5 Z M 120.5,75.5 C 134.123,74.3212 146.457,77.6546 157.5,85.5C 154.516,88.9846 151.349,92.318 148,95.5C 128.072,85.2188 110.739,88.5521 96,105.5C 87.5851,119.613 87.4184,133.78 95.5,148C 92.318,151.349 88.9846,154.516 85.5,157.5C 70.0994,132.293 72.7661,109.127 93.5,88C 101.575,81.6261 110.575,77.4595 120.5,75.5 Z"/></g>
<g><path style="opacity:0.922" fill="#a9b8f1" d="M 234.5,9.5 C 218.544,26.967 201.71,44.3004 184,61.5C 183.25,60.8742 182.416,60.3742 181.5,60C 181.728,59.6012 182.062,59.4346 182.5,59.5C 183.239,59.631 183.906,59.4643 184.5,59C 201.035,42.2982 217.701,25.7982 234.5,9.5 Z"/></g>
<g><path style="opacity:1" fill="#3a8f9b" d="M 210.5,78.5 C 227.839,91.1728 242.839,106.173 255.5,123.5C 255.5,126.167 255.5,128.833 255.5,131.5C 232.844,162.328 204.178,185.828 169.5,202C 141.871,213.096 114.204,213.262 86.5,202.5C 94.1102,193.553 102.11,184.886 110.5,176.5C 137.191,183.55 158.024,175.55 173,152.5C 180.053,138.643 181.22,124.31 176.5,109.5C 187.833,99.1667 199.167,88.8333 210.5,78.5 Z"/></g>
<g><path style="opacity:0.647" fill="#8e7467" d="M 210.5,78.5 C 199.167,88.8333 187.833,99.1667 176.5,109.5C 186.631,98.8683 196.965,88.3683 207.5,78C 208.749,77.2599 209.749,77.4265 210.5,78.5 Z"/></g>
<g><path style="opacity:1" fill="#478f9a" d="M 163.5,122.5 C 167.016,142.174 158.683,156.007 138.5,164C 135.207,164.826 131.874,165.326 128.5,165.5C 127.048,164.698 125.382,164.198 123.5,164C 137.713,150.301 151.046,136.467 163.5,122.5 Z"/></g>
<g><path style="opacity:0.647" fill="#9d7167" d="M 163.5,122.5 C 151.046,136.467 137.713,150.301 123.5,164C 125.382,164.198 127.048,164.698 128.5,165.5C 126.076,165.808 123.743,165.474 121.5,164.5C 135.188,150.146 149.188,136.146 163.5,122.5 Z"/></g>
<g><path style="opacity:0.647" fill="#a68675" d="M 110.5,176.5 C 102.11,184.886 94.1102,193.553 86.5,202.5C 85.4265,201.749 85.2599,200.749 86,199.5C 93.7549,191.24 101.922,183.574 110.5,176.5 Z"/></g>
<g><path style="opacity:0.922" fill="#aab8ef" d="M -0.5,247.5 C -0.5,246.167 -0.5,244.833 -0.5,243.5C 18.8333,224.833 37.8333,205.833 56.5,186.5C 58.1053,185.031 58.6053,185.365 58,187.5C 37.8822,207.115 18.3822,227.115 -0.5,247.5 Z"/></g>
</svg>
