<?xml version="1.0" encoding="UTF-8"?>
<!DOCTYPE svg PUBLIC "-//W3C//DTD SVG 1.1//EN" "http://www.w3.org/Graphics/SVG/1.1/DTD/svg11.dtd">
<svg xmlns="http://www.w3.org/2000/svg" version="1.1" width="256px" height="256px" style="shape-rendering:geometricPrecision; text-rendering:geometricPrecision; image-rendering:optimizeQuality; fill-rule:evenodd; clip-rule:evenodd" xmlns:xlink="http://www.w3.org/1999/xlink">
<g><path style="opacity:1" fill="#3b8f9b" d="M 255.5,121.5 C 255.5,125.5 255.5,129.5 255.5,133.5C 233.854,162.835 206.52,185.335 173.5,201C 133.976,216.671 96.3089,213.005 60.5,190C 36.4804,175.147 16.1471,156.314 -0.5,133.5C -0.5,129.5 -0.5,125.5 -0.5,121.5C 4.75118,113.911 10.7512,106.911 17.5,100.5C 17.4346,100.938 17.6012,101.272 18,101.5C 19.5,100 21,98.5 22.5,97C 22.2716,96.6012 21.9382,96.4346 21.5,96.5C 87.5391,29.9565 155.872,27.4565 226.5,89C 237.516,98.8371 247.183,109.67 255.5,121.5 Z M 124.5,72.5 C 149.244,73.1139 167.077,84.4472 178,106.5C 187.879,138.542 178.045,162.375 148.5,178C 116.457,187.878 92.6236,178.045 77,148.5C 67.1213,116.458 76.9546,92.6247 106.5,77C 112.479,74.8385 118.479,73.3385 124.5,72.5 Z"/></g>
<g><path style="opacity:1" fill="#3b8e9b" d="M 121.5,87.5 C 145.921,86.6125 161.088,97.9458 167,121.5C 168.353,145.983 157.187,161.149 133.5,167C 109.056,168.367 93.8894,157.2 88,133.5C 86.7466,108.973 97.9133,93.6401 121.5,87.5 Z"/></g>
<g><path style="opacity:0.898" fill="#cf5897" d="M 21.5,96.5 C 21.9382,96.4346 22.2716,96.6012 22.5,97C 21,98.5 19.5,100 18,101.5C 17.6012,101.272 17.4346,100.938 17.5,100.5C 18.5,98.8333 19.8333,97.5 21.5,96.5 Z"/></g>
</svg>
