<?xml version="1.0" encoding="UTF-8"?>
<!DOCTYPE svg PUBLIC "-//W3C//DTD SVG 1.1//EN" "http://www.w3.org/Graphics/SVG/1.1/DTD/svg11.dtd">
<svg xmlns="http://www.w3.org/2000/svg" version="1.1" width="512px" height="512px" style="shape-rendering:geometricPrecision; text-rendering:geometricPrecision; image-rendering:optimizeQuality; fill-rule:evenodd; clip-rule:evenodd" xmlns:xlink="http://www.w3.org/1999/xlink">
<g><path style="opacity:1" fill="#328e9c" d="M 142.5,-0.5 C 147.5,-0.5 152.5,-0.5 157.5,-0.5C 160.81,0.603843 163.81,2.27051 166.5,4.5C 205.501,44.5014 245.168,83.8347 285.5,122.5C 323.465,159.965 361.299,197.632 399,235.5C 408.09,247.397 408.757,259.73 401,272.5C 322.833,350.667 244.667,428.833 166.5,507C 163.408,508.546 160.408,510.046 157.5,511.5C 152.5,511.5 147.5,511.5 142.5,511.5C 137.679,509.689 133.345,507.023 129.5,503.5C 125.5,497.5 120.5,492.5 114.5,488.5C 104.076,478.113 101.91,466.113 108,452.5C 109.666,449.669 111.832,447.336 114.5,445.5C 146.833,414.837 178.833,383.17 210.5,350.5C 236.217,325.783 261.217,300.45 285.5,274.5C 291.478,268.187 297.478,261.854 303.5,255.5C 298.145,249.813 292.812,244.146 287.5,238.5C 262.217,211.55 236.217,185.217 209.5,159.5C 178.167,127.163 146.5,95.8298 114.5,65.5C 105.069,56.1937 102.569,45.1937 107,32.5C 115.099,22.3981 123.932,12.8981 133.5,4C 136.592,2.45406 139.592,0.95406 142.5,-0.5 Z"/></g>
<g><path style="opacity:0.996" fill="#ab718d" d="M 166.5,4.5 C 206.805,43.1381 246.472,82.4714 285.5,122.5C 245.168,83.8347 205.501,44.5014 166.5,4.5 Z"/></g>
<g><path style="opacity:0.153" fill="#da8156" d="M 209.5,159.5 C 209.167,159.5 208.833,159.5 208.5,159.5C 176.833,128.5 145.5,97.1667 114.5,65.5C 146.5,95.8298 178.167,127.163 209.5,159.5 Z"/></g>
<g><path style="opacity:0.898" fill="#f34a93" d="M 208.5,159.5 C 208.833,159.5 209.167,159.5 209.5,159.5C 236.217,185.217 262.217,211.55 287.5,238.5C 260.833,212.5 234.5,186.167 208.5,159.5 Z"/></g>
<g><path style="opacity:0.973" fill="#8894e3" d="M 285.5,274.5 C 261.217,300.45 236.217,325.783 210.5,350.5C 210.167,350.5 209.833,350.5 209.5,350.5C 234.5,324.833 259.833,299.5 285.5,274.5 Z"/></g>
<g><path style="opacity:0.973" fill="#8c99b4" d="M 209.5,350.5 C 209.833,350.5 210.167,350.5 210.5,350.5C 178.833,383.17 146.833,414.837 114.5,445.5C 145.833,413.5 177.5,381.833 209.5,350.5 Z"/></g>
<g><path style="opacity:0.706" fill="#b66989" d="M 114.5,488.5 C 120.5,492.5 125.5,497.5 129.5,503.5C 124.167,498.833 119.167,493.833 114.5,488.5 Z"/></g>
</svg>
