<?xml version="1.0" encoding="UTF-8"?>
<!DOCTYPE svg PUBLIC "-//W3C//DTD SVG 1.1//EN" "http://www.w3.org/Graphics/SVG/1.1/DTD/svg11.dtd">
<svg xmlns="http://www.w3.org/2000/svg" version="1.1" width="512px" height="512px" style="shape-rendering:geometricPrecision; text-rendering:geometricPrecision; image-rendering:optimizeQuality; fill-rule:evenodd; clip-rule:evenodd" xmlns:xlink="http://www.w3.org/1999/xlink">
<g><path style="opacity:1" fill="#388e9b" d="M 194.5,-0.5 C 208.167,-0.5 221.833,-0.5 235.5,-0.5C 313.082,10.0384 369.248,50.3717 404,120.5C 407.004,127.345 409.504,134.345 411.5,141.5C 411.062,141.435 410.728,141.601 410.5,142C 411.229,144.058 412.229,145.891 413.5,147.5C 432.576,217.955 419.576,281.788 374.5,339C 416,382.5 457.5,426 499,469.5C 507.34,488.658 502.173,502.658 483.5,511.5C 478.5,511.5 473.5,511.5 468.5,511.5C 465.437,510.301 462.437,508.801 459.5,507C 417.333,463.5 375.167,420 333,376.5C 282.477,410.603 227.31,421.103 167.5,408C 89.4556,386.955 38.6223,337.789 15,260.5C -4.00855,177.999 17.1581,107.832 78.5,50C 111.999,21.4395 150.666,4.60622 194.5,-0.5 Z M 335.5,299.5 C 332.791,302.208 330.458,305.208 328.5,308.5C 280.447,356.428 224.114,369.594 159.5,348C 105.177,324.331 73.3437,283.164 64,224.5C 59.2825,159.101 84.4491,108.934 139.5,74C 189.833,46.6667 240.167,46.6667 290.5,74C 342.558,106.605 368.058,153.772 367,215.5C 364.859,246.771 354.359,274.771 335.5,299.5 Z"/></g>
<g><path style="opacity:0.055" fill="#c25099" d="M 411.5,141.5 C 412.738,143.214 413.405,145.214 413.5,147.5C 412.229,145.891 411.229,144.058 410.5,142C 410.728,141.601 411.062,141.435 411.5,141.5 Z"/></g>
<g><path style="opacity:0.953" fill="#925257" d="M 335.5,299.5 C 334.306,303.363 331.973,306.363 328.5,308.5C 330.458,305.208 332.791,302.208 335.5,299.5 Z"/></g>
</svg>
