<?xml version="1.0" encoding="UTF-8"?>
<!DOCTYPE svg PUBLIC "-//W3C//DTD SVG 1.1//EN" "http://www.w3.org/Graphics/SVG/1.1/DTD/svg11.dtd">
<svg xmlns="http://www.w3.org/2000/svg" version="1.1" width="512px" height="512px" style="shape-rendering:geometricPrecision; text-rendering:geometricPrecision; image-rendering:optimizeQuality; fill-rule:evenodd; clip-rule:evenodd" xmlns:xlink="http://www.w3.org/1999/xlink">
<g><path style="opacity:1" fill="#338e9c" d="M 238.5,-0.5 C 249.5,-0.5 260.5,-0.5 271.5,-0.5C 316.472,7.58581 348.972,32.2525 369,73.5C 389.429,130.053 377.596,178.553 333.5,219C 296.167,247.146 255.167,253.813 210.5,239C 166.102,220.263 139.935,187.096 132,139.5C 126.918,82.9901 148.752,40.6568 197.5,12.5C 197.56,13.0431 197.893,13.3764 198.5,13.5C 200.812,12.8065 202.146,11.8065 202.5,10.5C 213.949,4.97203 225.949,1.30537 238.5,-0.5 Z"/></g>
<g><path style="opacity:0.898" fill="#c72e68" d="M 202.5,10.5 C 202.146,11.8065 200.812,12.8065 198.5,13.5C 197.893,13.3764 197.56,13.0431 197.5,12.5C 199.05,11.5592 200.716,10.8925 202.5,10.5 Z"/></g>
<g><path style="opacity:1" fill="#318f9c" d="M 397.5,511.5 C 304.5,511.5 211.5,511.5 118.5,511.5C 83.5015,506.238 60.0015,486.905 48,453.5C 40.9346,407.885 44.9346,363.219 60,319.5C 67.8551,298.591 80.0218,280.757 96.5,266C 117.005,250.457 140.005,244.457 165.5,248C 180.573,257.399 195.907,266.399 211.5,275C 246.104,289.986 280.104,288.653 313.5,271C 325.665,263.083 337.999,255.416 350.5,248C 391.504,243.919 422.671,259.419 444,294.5C 453.954,312.026 460.954,330.692 465,350.5C 471.23,380.235 473.23,410.235 471,440.5C 462.997,481.337 438.497,505.004 397.5,511.5 Z"/></g>
</svg>
