<?xml version="1.0" encoding="UTF-8"?>
<!DOCTYPE svg PUBLIC "-//W3C//DTD SVG 1.1//EN" "http://www.w3.org/Graphics/SVG/1.1/DTD/svg11.dtd">
<svg xmlns="http://www.w3.org/2000/svg" version="1.1" width="512px" height="512px" style="shape-rendering:geometricPrecision; text-rendering:geometricPrecision; image-rendering:optimizeQuality; fill-rule:evenodd; clip-rule:evenodd" xmlns:xlink="http://www.w3.org/1999/xlink">
<g><path style="opacity:1" fill="#3e8e9b" d="M 238.5,-0.5 C 249.5,-0.5 260.5,-0.5 271.5,-0.5C 316.472,7.58581 348.972,32.2525 369,73.5C 389.429,130.053 377.596,178.553 333.5,219C 296.167,247.146 255.167,253.813 210.5,239C 166.102,220.263 139.935,187.096 132,139.5C 126.918,82.9901 148.752,40.6568 197.5,12.5C 197.56,13.0431 197.893,13.3764 198.5,13.5C 200.812,12.8065 202.146,11.8065 202.5,10.5C 213.949,4.97203 225.949,1.30537 238.5,-0.5 Z M 253.5,29.5 C 294.277,31.4629 323.444,50.7962 341,87.5C 356.723,136.669 343.223,175.503 300.5,204C 255.144,225.239 215.644,217.405 182,180.5C 160.931,151.639 156.598,120.306 169,86.5C 186.216,51.15 214.383,32.15 253.5,29.5 Z"/></g>
<g><path style="opacity:0.898" fill="#c72e68" d="M 202.5,10.5 C 202.146,11.8065 200.812,12.8065 198.5,13.5C 197.893,13.3764 197.56,13.0431 197.5,12.5C 199.05,11.5592 200.716,10.8925 202.5,10.5 Z"/></g>
<g><path style="opacity:1" fill="#3a8f9b" d="M 397.5,511.5 C 304.5,511.5 211.5,511.5 118.5,511.5C 83.5015,506.238 60.0015,486.905 48,453.5C 40.9346,407.885 44.9346,363.219 60,319.5C 67.8551,298.591 80.0218,280.757 96.5,266C 117.005,250.457 140.005,244.457 165.5,248C 180.573,257.399 195.907,266.399 211.5,275C 246.104,289.986 280.104,288.653 313.5,271C 325.665,263.083 337.999,255.416 350.5,248C 391.504,243.919 422.671,259.419 444,294.5C 459.993,324.796 468.993,357.13 471,391.5C 473.902,412.388 472.902,433.054 468,453.5C 456.094,486.904 432.594,506.237 397.5,511.5 Z M 428.5,462.5 C 425.833,464.5 423.5,466.833 421.5,469.5C 409.423,477.356 396.089,481.189 381.5,481C 299.167,481.667 216.833,481.667 134.5,481C 115.167,481.41 99,474.577 86,460.5C 80.7267,453.357 77.3934,445.357 76,436.5C 73.1893,399.51 77.8559,363.51 90,328.5C 96.7364,310.11 108.236,295.61 124.5,285C 134.952,279.296 145.952,277.296 157.5,279C 225.366,329.268 293.033,328.935 360.5,278C 381.167,277.583 398,285.416 411,301.5C 425.157,321.957 433.824,344.624 437,369.5C 439.979,388.73 441.312,408.063 441,427.5C 440.743,440.657 436.577,452.324 428.5,462.5 Z"/></g>
<g><path style="opacity:0.706" fill="#b4657c" d="M 428.5,462.5 C 426.949,465.563 424.782,468.229 422,470.5C 421.601,470.272 421.435,469.938 421.5,469.5C 423.5,466.833 425.833,464.5 428.5,462.5 Z"/></g>
</svg>
